<?xml version="1.0" encoding="UTF-8" standalone="no"?>
<svg
   xmlns:dc="http://purl.org/dc/elements/1.1/"
   xmlns:cc="http://creativecommons.org/ns#"
   xmlns:rdf="http://www.w3.org/1999/02/22-rdf-syntax-ns#"
   xmlns:svg="http://www.w3.org/2000/svg"
   xmlns="http://www.w3.org/2000/svg"
   xmlns:sodipodi="http://sodipodi.sourceforge.net/DTD/sodipodi-0.dtd"
   xmlns:inkscape="http://www.inkscape.org/namespaces/inkscape"
   enable-background="new 0 0 500 500"
   height="500px"
   id="Layer_1"
   version="1.1"
   viewBox="0 0 500 500"
   width="500px"
   xml:space="preserve"
   sodipodi:docname="hard-disk.svg"
   inkscape:version="0.92.1 r"><metadata
     id="metadata9"><rdf:RDF><cc:Work
         rdf:about=""><dc:format>image/svg+xml</dc:format><dc:type
           rdf:resource="http://purl.org/dc/dcmitype/StillImage" /><dc:title></dc:title></cc:Work></rdf:RDF></metadata><defs
     id="defs7" /><sodipodi:namedview
     pagecolor="#ffffff"
     bordercolor="#666666"
     borderopacity="1"
     objecttolerance="10"
     gridtolerance="10"
     guidetolerance="10"
     inkscape:pageopacity="0"
     inkscape:pageshadow="2"
     inkscape:window-width="1920"
     inkscape:window-height="1043"
     id="namedview5"
     showgrid="false"
     inkscape:zoom="1.3350176"
     inkscape:cx="232.29958"
     inkscape:cy="211.16324"
     inkscape:window-x="0"
     inkscape:window-y="0"
     inkscape:window-maximized="1"
     inkscape:current-layer="Layer_1" /><path
     clip-rule="evenodd"
     d="M273.215,200.03c0-12.537-10.179-22.713-22.715-22.713  s-22.713,10.177-22.713,22.713s10.177,22.713,22.713,22.713S273.215,212.567,273.215,200.03z M109.674,31.949  c-25.075,0-45.427,20.354-45.427,45.426v345.249c0,25.073,20.352,45.427,45.427,45.427h281.648  c25.076,0,45.431-20.354,45.431-45.427V77.375c0-25.072-20.354-45.426-45.431-45.426H109.674z M250.5,77.375  c67.779,0,122.655,54.878,122.655,122.655c0,35.344-14.906,67.236-38.89,89.585c-12.262-9.27-23.716-18.355-30.254-24.984  c-19.528-19.537-51.15-19.537-70.688,0c-14.8,14.81-18.348,36.707-10.717,54.875c-54.328-12.632-94.76-61.325-94.76-119.476  C127.845,132.253,182.722,77.375,250.5,77.375z M109.674,399.909c0-12.536,10.177-22.711,22.713-22.711s22.713,10.175,22.713,22.711  c0,12.54-10.177,22.715-22.713,22.715S109.674,412.449,109.674,399.909z M259.131,290.433c5.448-5.456,14.259-5.456,19.804,0  c3.187,3.274,92.496,66.144,102.851,76.499c12.716,12.811,12.716,33.432,0,46.155c-12.724,12.712-33.349,12.712-46.152,0  c-10.905-10.904-73.511-99.942-76.502-102.851C253.674,304.692,253.674,295.882,259.131,290.433z"
     fill="#010101"
     fill-rule="evenodd"
     id="path2"
     style="fill:#ffffff" /></svg>